<?xml version="1.0" standalone="no"?><svg xmlns="http://www.w3.org/2000/svg" viewBox="0 0 1440 320"><path fill="000000" fill-opacity="1" d="M0,192L24,176C48,160,96,128,144,133.3C192,139,240,181,288,176C336,171,384,117,432,112C480,107,528,149,576,186.7C624,224,672,256,720,261.3C768,267,816,245,864,245.3C912,245,960,267,1008,250.7C1056,235,1104,181,1152,149.3C1200,117,1248,107,1296,90.7C1344,75,1392,53,1416,42.7L1440,32L1440,0L1416,0C1392,0,1344,0,1296,0C1248,0,1200,0,1152,0C1104,0,1056,0,1008,0C960,0,912,0,864,0C816,0,768,0,720,0C672,0,624,0,576,0C528,0,480,0,432,0C384,0,336,0,288,0C240,0,192,0,144,0C96,0,48,0,24,0L0,0Z"></path></svg>