<?xml version="1.0" standalone="no"?><svg xmlns="http://www.w3.org/2000/svg" viewBox="0 0 1440 320"><path fill="#000000" fill-opacity="1" d="M0,0L34.3,21.3C68.6,43,137,85,206,101.3C274.3,117,343,107,411,96C480,85,549,75,617,106.7C685.7,139,754,213,823,208C891.4,203,960,117,1029,106.7C1097.1,96,1166,160,1234,192C1302.9,224,1371,224,1406,224L1440,224L1440,0L1405.7,0C1371.4,0,1303,0,1234,0C1165.7,0,1097,0,1029,0C960,0,891,0,823,0C754.3,0,686,0,617,0C548.6,0,480,0,411,0C342.9,0,274,0,206,0C137.1,0,69,0,34,0L0,0Z"></path></svg>