<?xml version="1.0" encoding="utf-8"?>
<!-- Generator: Adobe Illustrator 26.1.0, SVG Export Plug-In . SVG Version: 6.00 Build 0)  -->
<svg version="1.1" id="Layer_1" xmlns="http://www.w3.org/2000/svg" xmlns:xlink="http://www.w3.org/1999/xlink" x="0px" y="0px"
	 viewBox="0 0 1440 109" style="enable-background:new 0 0 1440 109;" xml:space="preserve">
<style type="text/css">
	.st0{fill:#5D5D5C;}
</style>
<path class="st0" d="M-113,207.9l37-33.8C-39,139.6,34.8,73,109.2,47.1c73.7-24.9,147.8-9,221.1,0c74.4,8.4,148.8,8.4,222.2-8.6
	c74.1-16.3,147.8-51.3,222.2-33.8c73.8,17.5,147.8,84.1,222.2,84.6c73.4-0.5,147.8-67.1,221.1-76.2c74.3-8.4,147.8,42.4,185.5,67.8
	l36.7,25.4V411h-37c-37,0-110.8,0-185.2,0c-73.7,0-147.8,0-221.1,0c-74.4,0-148.8,0-222.2,0c-74.1,0-147.8,0-222.2,0
	c-73.8,0-147.8,0-222.2,0c-73.4,0-147.8,0-221.1,0c-74.3,0-147.8,0-185.5,0H-113V207.9z"/>
</svg>
