<?xml version="1.0" standalone="no"?><svg xmlns="http://www.w3.org/2000/svg" viewBox="0 0 1440 320"><path fill="#5d5d5c" fill-opacity="1" d="M0,192L34.3,170.7C68.6,149,137,107,206,90.7C274.3,75,343,85,411,90.7C480,96,549,96,617,85.3C685.7,75,754,53,823,64C891.4,75,960,117,1029,117.3C1097.1,117,1166,75,1234,69.3C1302.9,64,1371,96,1406,112L1440,128L1440,320L1405.7,320C1371.4,320,1303,320,1234,320C1165.7,320,1097,320,1029,320C960,320,891,320,823,320C754.3,320,686,320,617,320C548.6,320,480,320,411,320C342.9,320,274,320,206,320C137.1,320,69,320,34,320L0,320Z"></path></svg>